<svg viewBox="0 0 22 16" xmlns="http://www.w3.org/2000/svg">
<path d="M10.5533 12.6581L10.9742 10.1739C11.0653 9.632 10.9102 9.0784 10.55 8.66027C10.1887 8.24107 9.65929 8 9.10165 8H1.89786C1.34022 8 0.810788 8.24107 0.449514 8.66027C0.089325 9.0784 -0.0658168 9.632 0.0253154 10.1739L0.446259 12.6581C0.773901 14.5867 2.4707 16 4.45933 16H6.54018C8.52882 16 10.2256 14.5867 10.5533 12.6581ZM9.36853 9.9104L8.94759 12.3947C8.75122 13.552 7.73358 14.4 6.54018 14.4H4.45933C3.26593 14.4 2.24829 13.552 2.05192 12.3947L1.63098 9.9104C1.61796 9.8336 1.63966 9.75467 1.69173 9.69387C1.74272 9.63413 1.81867 9.6 1.89786 9.6H9.10165C9.18084 9.6 9.25679 9.63413 9.30778 9.69387C9.35985 9.75467 9.38155 9.8336 9.36853 9.9104Z"/>
<path d="M21.5533 12.6581L21.9742 10.1739C22.0653 9.632 21.9102 9.0784 21.55 8.66027C21.1887 8.24107 20.6593 8 20.1016 8H12.8979C12.3402 8 11.8108 8.24107 11.4495 8.66027C11.0893 9.0784 10.9342 9.632 11.0253 10.1739L11.4463 12.6581C11.7739 14.5867 13.4707 16 15.4593 16H17.5402C19.5288 16 21.2256 14.5867 21.5533 12.6581ZM20.3685 9.9104L19.9476 12.3947C19.7512 13.552 18.7336 14.4 17.5402 14.4H15.4593C14.2659 14.4 13.2483 13.552 13.0519 12.3947L12.631 9.9104C12.618 9.8336 12.6397 9.75467 12.6917 9.69387C12.7427 9.63413 12.8187 9.6 12.8979 9.6H20.1016C20.1808 9.6 20.2568 9.63413 20.3078 9.69387C20.3599 9.75467 20.3816 9.8336 20.3685 9.9104Z"/>
<path d="M12.2228 9H9.7772C9.34819 9 9 9.448 9 10C9 10.552 9.34819 11 9.7772 11H12.2228C12.6518 11 13 10.552 13 10C13 9.448 12.6518 9 12.2228 9Z"/>
<path d="M20.9756 8.96956L19.1234 1.46567C18.9827 0.896527 18.5955 0.422423 18.0686 0.177083C17.5429 -0.068258 16.9353 -0.0583122 16.4183 0.204711L15.4529 0.693182C15.0482 0.897632 14.8846 1.39605 15.0864 1.80495C15.2882 2.21496 15.7801 2.38073 16.1837 2.17628L17.1491 1.6867C17.2233 1.64913 17.3105 1.64802 17.3858 1.68339C17.4611 1.71875 17.5156 1.78616 17.5363 1.86684L19.3874 9.37183C19.4976 9.81609 19.9415 10.0857 20.38 9.97523C20.8175 9.86361 21.0847 9.41382 20.9756 8.96956Z"/>
<path d="M2.61258 9.37183L4.46367 1.86684C4.48439 1.78616 4.53893 1.71875 4.6142 1.68339C4.68946 1.64802 4.77673 1.64913 4.8509 1.6867L5.81626 2.17628C6.21985 2.38073 6.7118 2.21496 6.9136 1.80495C7.1154 1.39605 6.95178 0.897632 6.54709 0.693182L5.58173 0.204711C5.0647 -0.0583122 4.45712 -0.068258 3.93136 0.177083C3.4045 0.422423 3.01727 0.896527 2.87656 1.46567L1.02438 8.96956C0.915301 9.41382 1.18255 9.86361 1.61996 9.97523C2.05846 10.0857 2.50241 9.81609 2.61258 9.37183Z"/>
</svg>
