<svg xmlns="http://www.w3.org/2000/svg" version="1.1" xmlns:xlink="http://www.w3.org/1999/xlink" viewBox="0 0 48 48" xml:space="preserve">
<g><path d="M38 45H9a3 3 0 0 1-3-3V6a3 3 0 0 1 3-3h29a3 3 0 0 1 3 3v36a3 3 0 0 1-3 3zM9 5a1 1 0 0 0-1 1v36a1 1 0 0 0 1 1h29a1 1 0 0 0 1-1V6a1 1 0 0 0-1-1z"></path><path d="M14 45H9a3 3 0 0 1-3-3V6a3 3 0 0 1 3-3h5a1 1 0 0 1 1 1v40a1 1 0 0 1-1 1zM9 5a1 1 0 0 0-1 1v36a1 1 0 0 0 1 1h4V5zM34 13H20a1 1 0 0 1 0-2h14a1 1 0 0 1 0 2zM34 19H20a1 1 0 0 1 0-2h14a1 1 0 0 1 0 2zM34 25H20a1 1 0 0 1 0-2h14a1 1 0 0 1 0 2z"></path><path d="M10 13H4a1 1 0 0 1 0-2h6a1 1 0 0 1 0 2zM10 21H4a1 1 0 0 1 0-2h6a1 1 0 0 1 0 2zM10 29H4a1 1 0 0 1 0-2h6a1 1 0 0 1 0 2zM10 37H4a1 1 0 0 1 0-2h6a1 1 0 0 1 0 2z"></path></g></svg>