<svg class="hidden">
  <symbol xmlns="http://www.w3.org/2000/svg" viewBox="0 0 16 13" id="mail">
    <path d="M14.2222 1.5H1.77778C1.34822 1.5 1 1.8198 1 2.21429V10.7857C1 11.1802 1.34822 11.5 1.77778 11.5H14.2222C14.6518 11.5 15 11.1802 15 10.7857V2.21429C15 1.8198 14.6518 1.5 14.2222 1.5Z" stroke-linecap="round" stroke-linejoin="round"></path>
    <path d="M1 2L8 6L15 2" stroke-linecap="round" stroke-linejoin="round"></path>
  </symbol>
  <symbol xmlns="http://www.w3.org/2000/svg" version="1.1" xmlns:xlink="http://www.w3.org/1999/xlink" xml:space="preserve" viewBox="0 0 48 48" id="notebookю">
    <g>
      <path d="M38 45H9a3 3 0 0 1-3-3V6a3 3 0 0 1 3-3h29a3 3 0 0 1 3 3v36a3 3 0 0 1-3 3zM9 5a1 1 0 0 0-1 1v36a1 1 0 0 0 1 1h29a1 1 0 0 0 1-1V6a1 1 0 0 0-1-1z"></path>
      <path d="M14 45H9a3 3 0 0 1-3-3V6a3 3 0 0 1 3-3h5a1 1 0 0 1 1 1v40a1 1 0 0 1-1 1zM9 5a1 1 0 0 0-1 1v36a1 1 0 0 0 1 1h4V5zM34 13H20a1 1 0 0 1 0-2h14a1 1 0 0 1 0 2zM34 19H20a1 1 0 0 1 0-2h14a1 1 0 0 1 0 2zM34 25H20a1 1 0 0 1 0-2h14a1 1 0 0 1 0 2z"></path>
      <path d="M10 13H4a1 1 0 0 1 0-2h6a1 1 0 0 1 0 2zM10 21H4a1 1 0 0 1 0-2h6a1 1 0 0 1 0 2zM10 29H4a1 1 0 0 1 0-2h6a1 1 0 0 1 0 2zM10 37H4a1 1 0 0 1 0-2h6a1 1 0 0 1 0 2z"></path>
    </g>
  </symbol>
  <symbol xmlns="http://www.w3.org/2000/svg" viewBox="0 0 16 16" id="search">
    <path d="M7.375 13.375C10.6887 13.375 13.375 10.6887 13.375 7.375C13.375 4.06129 10.6887 1.375 7.375 1.375C4.06129 1.375 1.375 4.06129 1.375 7.375C1.375 10.6887 4.06129 13.375 7.375 13.375Z"/><path d="M11.625 11.625L14.625 14.625"/>
  </symbol>
  <symbol xmlns="http://www.w3.org/2000/svg" viewBox="0 0 14 15" id="tel">
    <path d="M4.09729 1.5H2.26316C1.56554 1.5 1 2.06554 1 2.76316C1 8.69295 5.80705 13.5 11.7368 13.5C12.4345 13.5 13 12.9345 13 12.2368V10.4027C13 9.8575 12.6681 9.36723 12.1619 9.16474L10.4047 8.4619C9.95003 8.28001 9.43221 8.36205 9.05598 8.67557L8.60207 9.05383C8.0723 9.49531 7.2933 9.45997 6.80568 8.97235L5.52765 7.69432C5.04003 7.2067 5.00469 6.4277 5.44617 5.89793L5.82443 5.44402C6.13795 5.06779 6.21999 4.54997 6.0381 4.09525L5.33526 2.33815C5.13277 1.83193 4.6425 1.5 4.09729 1.5Z"></path>
  </symbol>
  <symbol xmlns="http://www.w3.org/2000/svg" viewBox="0 0 18 18" id="tel-2">
    <path d="M9 0C4.032 0 0 4.032 0 9C0 13.968 4.032 18 9 18C13.968 18 18 13.968 18 9C18 4.032 13.968 0 9 0ZM13.176 6.12C13.041 7.542 12.456 10.998 12.159 12.591C12.033 13.266 11.781 13.491 11.547 13.518C11.025 13.563 10.629 13.176 10.125 12.843C9.333 12.321 8.883 11.997 8.118 11.493C7.227 10.908 7.803 10.584 8.316 10.062C8.451 9.927 10.755 7.83 10.8 7.641C10.8063 7.61237 10.8054 7.58265 10.7976 7.55442C10.7897 7.52619 10.7751 7.5003 10.755 7.479C10.701 7.434 10.629 7.452 10.566 7.461C10.485 7.479 9.225 8.316 6.768 9.972C6.408 10.215 6.084 10.341 5.796 10.332C5.472 10.323 4.86 10.152 4.401 9.999C3.834 9.819 3.393 9.72 3.429 9.405C3.447 9.243 3.672 9.081 4.095 8.91C6.723 7.767 8.469 7.011 9.342 6.651C11.844 5.607 12.357 5.427 12.699 5.427C12.771 5.427 12.942 5.445 13.05 5.535C13.14 5.607 13.167 5.706 13.176 5.778C13.167 5.832 13.185 5.994 13.176 6.12Z"></path>
  </symbol>
  <symbol xmlns="http://www.w3.org/2000/svg" viewBox="0 0 18 12" id="telegram">
    <path d="M9 0C4.032 0 0 4.032 0 9C0 13.968 4.032 18 9 18C13.968 18 18 13.968 18 9C18 4.032 13.968 0 9 0ZM13.176 6.12C13.041 7.542 12.456 10.998 12.159 12.591C12.033 13.266 11.781 13.491 11.547 13.518C11.025 13.563 10.629 13.176 10.125 12.843C9.333 12.321 8.883 11.997 8.118 11.493C7.227 10.908 7.803 10.584 8.316 10.062C8.451 9.927 10.755 7.83 10.8 7.641C10.8063 7.61237 10.8054 7.58265 10.7976 7.55442C10.7897 7.52619 10.7751 7.5003 10.755 7.479C10.701 7.434 10.629 7.452 10.566 7.461C10.485 7.479 9.225 8.316 6.768 9.972C6.408 10.215 6.084 10.341 5.796 10.332C5.472 10.323 4.86 10.152 4.401 9.999C3.834 9.819 3.393 9.72 3.429 9.405C3.447 9.243 3.672 9.081 4.095 8.91C6.723 7.767 8.469 7.011 9.342 6.651C11.844 5.607 12.357 5.427 12.699 5.427C12.771 5.427 12.942 5.445 13.05 5.535C13.14 5.607 13.167 5.706 13.176 5.778C13.167 5.832 13.185 5.994 13.176 6.12Z" />
  </symbol>
  <symbol xmlns="http://www.w3.org/2000/svg" viewBox="0 0 18 18" id="vk">
    <path d="M9.80387 11.5C3.65397 11.5 0.146159 7.37087 0 0.5H3.08057C3.18176 5.54304 5.45284 7.67918 7.25172 8.11962V0.5H10.1524V4.84935C11.9288 4.66216 13.7951 2.68018 14.4247 0.5H17.3254C17.0882 1.6307 16.6152 2.7013 15.9362 3.64482C15.2572 4.58835 14.3867 5.3845 13.3791 5.98348C14.5038 6.53079 15.4972 7.30546 16.2937 8.25637C17.0902 9.20728 17.6718 10.3128 18 11.5H14.807C14.5124 10.4688 13.9135 9.54578 13.0855 8.84651C12.2575 8.14723 11.2372 7.70286 10.1524 7.56907V11.5H9.80387Z"></path>
  </symbol>
  <symbol xmlns="http://www.w3.org/2000/svg" viewBox="0 0 20 14" id="whatsapp">
      <path d="M9.00001 0C13.9707 0 18 4.0293 18 8.99999C18 13.9707 13.9707 18 9.00001 18C7.40951 18.0026 5.847 17.5816 4.47301 16.7805L0.00361266 18L1.22041 13.5288C0.418596 12.1544 -0.00264454 10.5912 1.24922e-05 8.99999C1.24922e-05 4.0293 4.02931 0 9.00001 0ZM5.93281 4.77L5.75281 4.7772C5.63628 4.78429 5.52239 4.81491 5.41801 4.8672C5.32038 4.92248 5.23126 4.9916 5.15341 5.0724C5.04541 5.1741 4.98421 5.2623 4.91851 5.3478C4.58562 5.78061 4.40638 6.31198 4.40911 6.858C4.41091 7.299 4.52611 7.72829 4.70611 8.12969C5.07421 8.94149 5.67991 9.80099 6.47911 10.5975C6.67171 10.7892 6.86071 10.9818 7.06411 11.1609C8.05716 12.0352 9.24053 12.6657 10.5201 13.0023L11.0313 13.0806C11.1978 13.0896 11.3643 13.077 11.5317 13.0689C11.7938 13.0554 12.0498 12.9844 12.2814 12.861C12.3993 12.8003 12.5143 12.7342 12.6261 12.663C12.6261 12.663 12.6648 12.6378 12.7386 12.582C12.8601 12.492 12.9348 12.4281 13.0356 12.3228C13.1103 12.2454 13.1751 12.1545 13.2246 12.051C13.2948 11.9043 13.365 11.6244 13.3938 11.3913C13.4154 11.2131 13.4091 11.1159 13.4064 11.0556C13.4028 10.9593 13.3227 10.8594 13.2354 10.8171L12.7116 10.5822C12.7116 10.5822 11.9286 10.2411 11.4498 10.0233C11.3997 10.0014 11.346 9.98891 11.2914 9.98639C11.2298 9.98007 11.1676 9.987 11.1089 10.0067C11.0503 10.0264 10.9965 10.0585 10.9512 10.1007C10.9467 10.0989 10.8864 10.1502 10.2357 10.9386C10.1984 10.9888 10.1469 11.0267 10.0879 11.0475C10.0289 11.0684 9.96509 11.0712 9.90451 11.0556C9.84588 11.0399 9.78843 11.02 9.7326 10.9962C9.62101 10.9494 9.58231 10.9314 9.50581 10.899C8.98927 10.6736 8.51103 10.369 8.08831 9.99629C7.97491 9.89729 7.86961 9.78929 7.76161 9.68489C7.40754 9.3458 7.09896 8.9622 6.84361 8.54369L6.79051 8.45819C6.75237 8.40074 6.72153 8.33877 6.69871 8.27369C6.66451 8.14139 6.75361 8.03519 6.75361 8.03519C6.75361 8.03519 6.97231 7.79579 7.07401 7.66619C7.17301 7.54019 7.25671 7.4178 7.31071 7.3305C7.41691 7.1595 7.45021 6.984 7.39441 6.8481C7.14241 6.2325 6.88141 5.6196 6.61321 5.0112C6.56011 4.8906 6.40261 4.8042 6.25951 4.7871C6.21091 4.7817 6.16231 4.7763 6.11371 4.7727C5.99284 4.76669 5.87173 4.76789 5.75101 4.7763L5.93191 4.7691L5.93281 4.77Z"></path>
  </symbol>
  <symbol xmlns="http://www.w3.org/2000/svg" viewBox="0 0 29 27" id="youtube">
    <path d="M29 1.90735e-06C23.5944 10.5736 5.47553 13.2306 0 13.4552C5.47553 13.4552 23.5944 16.4264 29 27C27.7832 22.4851 24.7818 13.5448 22.5105 13.5448C24.7818 13.5448 27.7832 4.51495 29 1.90735e-06Z"></path>
    <path d="M17.8252 0.428213C18.6819 0.658872 19.3574 1.33407 19.5879 2.19065C20.0164 3.75522 19.9999 7.01648 19.9999 7.01648C19.9999 7.01648 19.9999 10.2611 19.5881 11.8258C19.3574 12.6823 18.682 13.3576 17.8252 13.5881C16.2602 14 9.99996 14 9.99996 14C9.99996 14 3.75609 14 2.17467 13.5718C1.3179 13.3411 0.642545 12.6658 0.411833 11.8094C0 10.2611 0 7 0 7C0 7 0 3.75522 0.411833 2.19065C0.642392 1.33422 1.33438 0.642396 2.17452 0.41189C3.73961 0 9.99981 0 9.99981 0C9.99981 0 16.2602 0 17.8252 0.428213ZM13 7L8 10V4L13 7Z"></path>
  </symbol>
  <symbol xmlns="http://www.w3.org/2000/svg" viewBox="0 0 29 27" id="arrow-left">
    <path d="M-1.90735e-06 1.90735e-06C5.4056 10.5736 23.5245 13.2306 29 13.4552C23.5245 13.4552 5.4056 16.4264 -1.90735e-06 27C1.21678 22.4851 4.21818 13.5448 6.48951 13.5448C4.21818 13.5448 1.21678 4.51495 -1.90735e-06 1.90735e-06Z"></path>
  </symbol>
  <symbol xmlns="http://www.w3.org/2000/svg" viewBox="0 0 11 6" id="arrow-right">
    <path d="M9.5 1L5.5 5L1.5 1" stroke-linecap="round" stroke-linejoin="round"></path>
  </symbol>
  <symbol xmlns="http://www.w3.org/2000/svg" viewBox="0 0 22 16" id="corner">
    <path d="M10.5533 12.6581L10.9742 10.1739C11.0653 9.632 10.9102 9.0784 10.55 8.66027C10.1887 8.24107 9.65929 8 9.10165 8H1.89786C1.34022 8 0.810788 8.24107 0.449514 8.66027C0.089325 9.0784 -0.0658168 9.632 0.0253154 10.1739L0.446259 12.6581C0.773901 14.5867 2.4707 16 4.45933 16H6.54018C8.52882 16 10.2256 14.5867 10.5533 12.6581ZM9.36853 9.9104L8.94759 12.3947C8.75122 13.552 7.73358 14.4 6.54018 14.4H4.45933C3.26593 14.4 2.24829 13.552 2.05192 12.3947L1.63098 9.9104C1.61796 9.8336 1.63966 9.75467 1.69173 9.69387C1.74272 9.63413 1.81867 9.6 1.89786 9.6H9.10165C9.18084 9.6 9.25679 9.63413 9.30778 9.69387C9.35985 9.75467 9.38155 9.8336 9.36853 9.9104Z"></path>
    <path d="M21.5533 12.6581L21.9742 10.1739C22.0653 9.632 21.9102 9.0784 21.55 8.66027C21.1887 8.24107 20.6593 8 20.1016 8H12.8979C12.3402 8 11.8108 8.24107 11.4495 8.66027C11.0893 9.0784 10.9342 9.632 11.0253 10.1739L11.4463 12.6581C11.7739 14.5867 13.4707 16 15.4593 16H17.5402C19.5288 16 21.2256 14.5867 21.5533 12.6581ZM20.3685 9.9104L19.9476 12.3947C19.7512 13.552 18.7336 14.4 17.5402 14.4H15.4593C14.2659 14.4 13.2483 13.552 13.0519 12.3947L12.631 9.9104C12.618 9.8336 12.6397 9.75467 12.6917 9.69387C12.7427 9.63413 12.8187 9.6 12.8979 9.6H20.1016C20.1808 9.6 20.2568 9.63413 20.3078 9.69387C20.3599 9.75467 20.3816 9.8336 20.3685 9.9104Z"></path>
    <path d="M12.2228 9H9.7772C9.34819 9 9 9.448 9 10C9 10.552 9.34819 11 9.7772 11H12.2228C12.6518 11 13 10.552 13 10C13 9.448 12.6518 9 12.2228 9Z"></path>
    <path d="M20.9756 8.96956L19.1234 1.46567C18.9827 0.896527 18.5955 0.422423 18.0686 0.177083C17.5429 -0.068258 16.9353 -0.0583122 16.4183 0.204711L15.4529 0.693182C15.0482 0.897632 14.8846 1.39605 15.0864 1.80495C15.2882 2.21496 15.7801 2.38073 16.1837 2.17628L17.1491 1.6867C17.2233 1.64913 17.3105 1.64802 17.3858 1.68339C17.4611 1.71875 17.5156 1.78616 17.5363 1.86684L19.3874 9.37183C19.4976 9.81609 19.9415 10.0857 20.38 9.97523C20.8175 9.86361 21.0847 9.41382 20.9756 8.96956Z"></path>
    <path d="M2.61258 9.37183L4.46367 1.86684C4.48439 1.78616 4.53893 1.71875 4.6142 1.68339C4.68946 1.64802 4.77673 1.64913 4.8509 1.6867L5.81626 2.17628C6.21985 2.38073 6.7118 2.21496 6.9136 1.80495C7.1154 1.39605 6.95178 0.897632 6.54709 0.693182L5.58173 0.204711C5.0647 -0.0583122 4.45712 -0.068258 3.93136 0.177083C3.4045 0.422423 3.01727 0.896527 2.87656 1.46567L1.02438 8.96956C0.915301 9.41382 1.18255 9.86361 1.61996 9.97523C2.05846 10.0857 2.50241 9.81609 2.61258 9.37183Z"></path>
  </symbol>
  <symbol xmlns="http://www.w3.org/2000/svg" viewBox="0 0 22 16" id="glasses">
    <path d="M10.5533 12.6581L10.9742 10.1739C11.0653 9.632 10.9102 9.0784 10.55 8.66027C10.1887 8.24107 9.65929 8 9.10165 8H1.89786C1.34022 8 0.810788 8.24107 0.449514 8.66027C0.089325 9.0784 -0.0658168 9.632 0.0253154 10.1739L0.446259 12.6581C0.773901 14.5867 2.4707 16 4.45933 16H6.54018C8.52882 16 10.2256 14.5867 10.5533 12.6581ZM9.36853 9.9104L8.94759 12.3947C8.75122 13.552 7.73358 14.4 6.54018 14.4H4.45933C3.26593 14.4 2.24829 13.552 2.05192 12.3947L1.63098 9.9104C1.61796 9.8336 1.63966 9.75467 1.69173 9.69387C1.74272 9.63413 1.81867 9.6 1.89786 9.6H9.10165C9.18084 9.6 9.25679 9.63413 9.30778 9.69387C9.35985 9.75467 9.38155 9.8336 9.36853 9.9104Z"/> 
    <path d="M21.5533 12.6581L21.9742 10.1739C22.0653 9.632 21.9102 9.0784 21.55 8.66027C21.1887 8.24107 20.6593 8 20.1016 8H12.8979C12.3402 8 11.8108 8.24107 11.4495 8.66027C11.0893 9.0784 10.9342 9.632 11.0253 10.1739L11.4463 12.6581C11.7739 14.5867 13.4707 16 15.4593 16H17.5402C19.5288 16 21.2256 14.5867 21.5533 12.6581ZM20.3685 9.9104L19.9476 12.3947C19.7512 13.552 18.7336 14.4 17.5402 14.4H15.4593C14.2659 14.4 13.2483 13.552 13.0519 12.3947L12.631 9.9104C12.618 9.8336 12.6397 9.75467 12.6917 9.69387C12.7427 9.63413 12.8187 9.6 12.8979 9.6H20.1016C20.1808 9.6 20.2568 9.63413 20.3078 9.69387C20.3599 9.75467 20.3816 9.8336 20.3685 9.9104Z"/>
    <path d="M12.2228 9H9.7772C9.34819 9 9 9.448 9 10C9 10.552 9.34819 11 9.7772 11H12.2228C12.6518 11 13 10.552 13 10C13 9.448 12.6518 9 12.2228 9Z"/>
    <path d="M20.9756 8.96956L19.1234 1.46567C18.9827 0.896527 18.5955 0.422423 18.0686 0.177083C17.5429 -0.068258 16.9353 -0.0583122 16.4183 0.204711L15.4529 0.693182C15.0482 0.897632 14.8846 1.39605 15.0864 1.80495C15.2882 2.21496 15.7801 2.38073 16.1837 2.17628L17.1491 1.6867C17.2233 1.64913 17.3105 1.64802 17.3858 1.68339C17.4611 1.71875 17.5156 1.78616 17.5363 1.86684L19.3874 9.37183C19.4976 9.81609 19.9415 10.0857 20.38 9.97523C20.8175 9.86361 21.0847 9.41382 20.9756 8.96956Z"/>
    <path d="M2.61258 9.37183L4.46367 1.86684C4.48439 1.78616 4.53893 1.71875 4.6142 1.68339C4.68946 1.64802 4.77673 1.64913 4.8509 1.6867L5.81626 2.17628C6.21985 2.38073 6.7118 2.21496 6.9136 1.80495C7.1154 1.39605 6.95178 0.897632 6.54709 0.693182L5.58173 0.204711C5.0647 -0.0583122 4.45712 -0.068258 3.93136 0.177083C3.4045 0.422423 3.01727 0.896527 2.87656 1.46567L1.02438 8.96956C0.915301 9.41382 1.18255 9.86361 1.61996 9.97523C2.05846 10.0857 2.50241 9.81609 2.61258 9.37183Z"/>
    </svg>
  </symbol>
</svg>