<svg viewBox="0 0 14 15" xmlns="http://www.w3.org/2000/svg">
<path d="M4.09729 1.5H2.26316C1.56554 1.5 1 2.06554 1 2.76316C1 8.69295 5.80705 13.5 11.7368 13.5C12.4345 13.5 13 12.9345 13 12.2368V10.4027C13 9.8575 12.6681 9.36723 12.1619 9.16474L10.4047 8.4619C9.95003 8.28001 9.43221 8.36205 9.05598 8.67557L8.60207 9.05383C8.0723 9.49531 7.2933 9.45997 6.80568 8.97235L5.52765 7.69432C5.04003 7.2067 5.00469 6.4277 5.44617 5.89793L5.82443 5.44402C6.13795 5.06779 6.21999 4.54997 6.0381 4.09525L5.33526 2.33815C5.13277 1.83193 4.6425 1.5 4.09729 1.5Z" />
</svg>
